<?xml version="1.0" standalone="no"?><!DOCTYPE svg PUBLIC "-//W3C//DTD SVG 1.1//EN" "http://www.w3.org/Graphics/SVG/1.1/DTD/svg11.dtd"><svg t="1614073286738" class="icon" viewBox="0 0 1024 1024" version="1.1" xmlns="http://www.w3.org/2000/svg" p-id="3793" xmlns:xlink="http://www.w3.org/1999/xlink" width="200" height="200"><defs><style type="text/css"></style></defs><path d="M483.22 240.47L754.73 512 483.22 783.53a32 32 0 0 0 45.25 45.25l294.15-294.15a32 32 0 0 0 0-45.26L528.47 195.22a32 32 0 0 0-45.25 45.25z" p-id="3794"></path><path d="M540.78 534.63a32 32 0 0 0 0-45.26L246.63 195.22a32 32 0 0 0-45.25 45.25L472.89 512 201.38 783.53a32 32 0 0 0 45.25 45.25z" p-id="3795"></path></svg>